<svg xmlns="http://www.w3.org/2000/svg" version="1.1" xmlns:xlink="http://www.w3.org/1999/xlink" xmlns:svgjs="http://svgjs.dev/svgjs" width="100%" height="100%" viewBox="0 0 1000 600"><rect width="1000" height="600" x="0" y="0" fill="#141a46"/><g><rect width="333.3333333333333" height="333.3333333333333" rx="13.333333333333334" ry="13.333333333333334" y="193.17262802322705" fill="#ec8b5e" transform="matrix(0.7312061628873598,0,0,0.7312061628873598,0,36.88327862961708)" x="170.95042419433594"/><path d="M382.48749348415043 434.49038948880684L382.48749348415043 434.49038948880684L377.8272511079674 419.7620298934905Q356.9932263673846 434.83928463996494 337.6295454781108 434.83928463996494L337.6295454781108 434.83928463996494Q320.035261426853 434.83928463996494 306.9516932584248 428.45948759021707Q293.843204007771 422.1046116226948 285.2205095577212 411.61283600572665Q276.6227361898969 401.0961393065329 272.4110732937743 387.7384392336233Q268.1744893154261 374.38073916071374 268.1744893154261 360.37509094993914L268.1744893154261 360.37509094993914Q268.1744893154261 346.1949951635855 273.1088635960905 332.66284751509687Q278.04323787675486 319.10577878438266 287.6627756158278 308.5143188385122Q297.25739227267513 297.9228588926418 311.0636718256451 291.39353534954046Q324.8948724608407 284.8392907242135 342.6386830054519 284.8392907242135L342.6386830054519 284.8392907242135Q367.410238737676 284.8392907242135 388.21934239603326 295.605198245663L388.21934239603326 295.605198245663L388.21934239603326 330.04613388141127Q385.00452278893374 330.59439769037397 382.48749348415043 330.59439769037397L382.48749348415043 330.59439769037397Q379.7960166037881 330.59439769037397 378.00169868354646 330.04613388141127L378.00169868354646 330.04613388141127L372.24492868943804 300.090993046267Q360.7812308656724 292.91372136530066 340.4954699340522 292.91372136530066L340.4954699340522 292.91372136530066Q329.18129860364 292.91372136530066 320.035261426853 298.0225432215441Q310.8892242500661 303.13136507778745 304.2602163780624 311.82882277451404Q297.60628742383324 320.55120155346617 294.0176515833501 332.2890312817132Q290.4290157428669 344.0517820921858 290.4290157428669 357.3347189184187L290.4290157428669 357.3347189184187Q290.4290157428669 371.48989362254673 293.7435196788687 383.52677633750073Q297.0829446970961 395.5387379702291 303.163688760137 404.33587999585797Q309.26935390540353 413.13302202148685 317.96681160213006 418.0673963021512Q326.68919038108226 423.0017705828156 337.45509790253175 423.0017705828156L337.45509790253175 423.0017705828156Q354.8500132959849 423.0017705828156 371.72158596270094 413.48191717264496L371.72158596270094 413.48191717264496L371.72158596270094 375.27789812083455L357.19259502518923 373.48358020059294Q356.8187787918056 372.58642124047213 356.8187787918056 370.5927346624259L356.8187787918056 370.5927346624259Q356.8187787918056 369.6955757023052 356.8187787918056 368.7984167421844Q356.8187787918056 367.90125778206357 357.19259502518923 366.82965124636377L357.19259502518923 366.82965124636377Q362.2017325525303 367.2034674797474 368.2077133688945 367.37791505532647Q374.23861526748425 367.5523626309055 381.7647820996087 367.5523626309055L381.7647820996087 367.5523626309055Q394.8732713502625 367.5523626309055 406.5363378318328 367.0040988219428L406.5363378318328 367.0040988219428Q407.0596805585699 368.6239691666053 407.0596805585699 370.2438395112678L407.0596805585699 370.2438395112678Q407.0596805585699 371.8637098559304 406.5363378318328 373.48358020059294L406.5363378318328 373.48358020059294L391.6335306609374 375.62679327199265Q391.2846355097793 379.04098153689677 391.0852668519747 384.2494877220425Q390.91081927639567 389.4330728249626 390.91081927639567 396.61034450592894L390.91081927639567 396.61034450592894L390.91081927639567 414.7528923661494L389.1165013561541 434.49038948880684Q388.3937899716123 434.83928463996494 387.69599966929616 434.83928463996494Q386.9732882847544 434.83928463996494 386.0761293246336 434.83928463996494L386.0761293246336 434.83928463996494Q385.1789703645128 434.83928463996494 384.281811404392 434.83928463996494Q383.38465244427124 434.83928463996494 382.48749348415043 434.49038948880684Z " fill="#141a47" transform="matrix(0.7312061628873598,0,0,0.7312061628873598,0,36.88327862961708)"/><path d="M676.1805959647772 400.78085357440136L676.1805959647772 400.78085357440136L672.5700931505238 389.3701200812263Q656.4290217456264 401.05115859792835 641.4270929398783 401.05115859792835L641.4270929398783 401.05115859792835Q627.7959967534457 401.05115859792835 617.6595583711836 396.1084381677205Q607.5038124872409 391.1850252391932 600.8234169057881 383.05656703170297Q594.1623288260158 374.9088013225322 590.8993610420114 364.55998042178453Q587.6170857563266 354.21115952103685 587.6170857563266 343.3603435765962L587.6170857563266 343.3603435765962Q587.6170857563266 332.3743751203921 591.4399710890655 321.8904017078809Q595.2628564218044 311.38712079368923 602.7155520704771 303.181432579477Q610.1489402174693 294.97574436526475 620.845296148466 289.91717892497394Q631.5609595811432 284.8393059830026 645.3079007776587 284.8393059830026L645.3079007776587 284.8393059830026Q664.4995574480752 284.8393059830026 680.6213213512921 293.1801467089783L680.6213213512921 293.1801467089783L680.6213213512921 319.86311403142844Q678.1306536345077 320.28787906839943 676.1805959647772 320.28787906839943L676.1805959647772 320.28787906839943Q674.0953857832833 320.28787906839943 672.7052456622873 319.86311403142844L672.7052456622873 319.86311403142844L668.2452127740919 296.65549701146824Q659.3637620010622 291.0949365274844 643.6474556331357 291.0949365274844L643.6474556331357 291.0949365274844Q634.8818498701891 291.0949365274844 627.7959967534457 295.05297437198675Q620.7101436367025 299.0110122164891 615.5743481896897 305.7493303029834Q610.4192452409964 312.5069558911582 607.6389649990044 321.6007891826734Q604.8586847570125 330.7139299758691 604.8586847570125 341.0048283715753L604.8586847570125 341.0048283715753Q604.8586847570125 351.97148932609895 607.4265824805188 361.29701263778014Q610.0137877057059 370.60322844778085 614.7248181157477 377.41877654099716Q619.45515602747 384.2343246342134 626.1934741139644 388.05720996695226Q632.9510997021391 391.88009529969116 641.2919404281148 391.88009529969116L641.2919404281148 391.88009529969116Q654.7685766011034 391.88009529969116 667.8397552388014 384.5046296577404L667.8397552388014 384.5046296577404L667.8397552388014 354.90622958153483L656.5834817590703 353.5160894605389Q656.2938692338628 352.82101940004094 656.2938692338628 351.27641926560096L656.2938692338628 351.27641926560096Q656.2938692338628 350.581349205103 656.2938692338628 349.886279144605Q656.2938692338628 349.191209084107 656.5834817590703 348.36098651184557L656.5834817590703 348.36098651184557Q660.4642895968507 348.65059903705304 665.1173975018511 348.78575154881656Q669.789812908532 348.92090406058 675.6206784160427 348.92090406058L675.6206784160427 348.92090406058Q685.7764242999854 348.92090406058 694.8123350864591 348.49613902360903L694.8123350864591 348.49613902360903Q695.2177926217496 349.75112663284153 695.2177926217496 351.006114242074L695.2177926217496 351.006114242074Q695.2177926217496 352.2611018513064 694.8123350864591 353.5160894605389L694.8123350864591 353.5160894605389L683.2664490815205 355.1765346050618Q682.9961440579935 357.8216623352902 682.8416840445495 361.8569301865146Q682.706531532786 365.8728905360585 682.706531532786 371.4334510200423L682.706531532786 371.4334510200423L682.706531532786 385.48931224344585L681.31639141179 400.78085357440136Q680.7564738630556 401.05115859792835 680.2158638160016 401.05115859792835Q679.6559462672672 401.05115859792835 678.9608762067692 401.05115859792835L678.9608762067692 401.05115859792835Q678.2658061462712 401.05115859792835 677.5707360857732 401.05115859792835Q676.8756660252752 401.05115859792835 676.1805959647772 400.78085357440136ZM762.0796709413189 359.0766499445227L762.0796709413189 359.0766499445227L718.4447171433903 359.0766499445227Q717.1897295341579 394.5252230299196 739.7022764936202 394.5252230299196L739.7022764936202 394.5252230299196Q749.2981048288284 394.5252230299196 759.299390699327 386.0299222904998L759.299390699327 386.0299222904998Q761.3846008808209 387.2849098997323 762.50443597829 390.35480266693173L762.50443597829 390.35480266693173Q752.9086076430817 401.05115859792835 738.1769838608607 401.05115859792835L738.1769838608607 401.05115859792835Q704.2537034082234 401.05115859792835 704.2537034082234 361.1618601260166L704.2537034082234 361.1618601260166Q704.2537034082234 342.24050847912724 714.2742967804024 331.7565350666161Q724.2755826509011 321.2532541524244 737.6170663121262 321.2532541524244L737.6170663121262 321.2532541524244Q752.2135375825837 321.2532541524244 758.604320638829 331.4090000363671Q765.0144111967548 341.54543841862926 765.0144111967548 357.8216623352902L765.0144111967548 357.8216623352902Q763.6242710757589 358.9221899310787 762.0796709413189 359.0766499445227ZM737.3467612885993 326.81381463640827L737.3467612885993 326.81381463640827Q730.106448158412 326.81381463640827 725.0478827181212 334.3244327901225Q719.9700097761498 341.83505094383673 718.8501746786808 353.5160894605389L718.8501746786808 353.5160894605389L736.0917736793668 353.5160894605389Q746.382672075073 353.5160894605389 750.8233974615878 352.2611018513064L750.8233974615878 352.2611018513064Q750.8233974615878 340.8503683581313 747.348047159098 333.84174524811004Q743.8726968566081 326.81381463640827 737.3467612885993 326.81381463640827ZM832.9768171121127 374.07857875027076L832.9768171121127 348.65059903705304Q832.9768171121127 337.9349356043759 830.1386143650793 333.6293627296245Q827.2811041163654 329.32378985487316 820.6200160365931 329.32378985487316L820.6200160365931 329.32378985487316Q810.3291176408869 329.32378985487316 799.9030667334173 344.7504836975922L799.9030667334173 344.7504836975922L799.9030667334173 391.1850252391932L811.1593402131484 393.27023542068713Q811.7192577618829 395.49059811394454 811.1593402131484 398.83079590467094L811.1593402131484 398.83079590467094Q802.3937344502017 398.40603086769994 793.2226711519645 398.40603086769994L793.2226711519645 398.40603086769994Q786.8318880957191 398.40603086769994 775.1508495790171 398.69564339290747L775.1508495790171 398.69564339290747Q774.3206270067556 396.05051566267906 775.1508495790171 393.27023542068713L775.1508495790171 393.27023542068713L786.1368180352212 391.74494278792764Q786.6967355839556 384.0991721224499 786.6967355839556 374.07857875027076L786.6967355839556 374.07857875027076L786.6967355839556 335.98487793464545Q786.6967355839556 333.2045976926535 786.2719705469847 330.8490824876326L786.2719705469847 330.8490824876326L775.2860020907806 329.4589423666367Q774.7453920437265 327.3737321851427 775.2860020907806 324.1686869061798L775.2860020907806 324.1686869061798Q784.8818304259887 323.4736168456819 799.2079966729193 321.2532541524244L799.2079966729193 321.2532541524244Q800.4629842821518 322.64339427342037 800.5981367939153 324.03353439441634L800.5981367939153 324.03353439441634Q799.9030667334173 327.6440372086697 799.9030667334173 336.40964297161645L799.9030667334173 336.40964297161645Q810.8890351896214 321.2532541524244 824.6359763861369 321.2532541524244L824.6359763861369 321.2532541524244Q846.1831482615743 321.2532541524244 846.1831482615743 341.69989843207327L846.1831482615743 341.69989843207327L846.1831482615743 391.1850252391932L857.4587292429859 393.27023542068713Q857.9993392900399 395.49059811394454 857.4587292429859 398.83079590467094L857.4587292429859 398.83079590467094Q848.6931234800393 398.40603086769994 839.522060181802 398.40603086769994L839.522060181802 398.40603086769994Q833.1312771255567 398.40603086769994 821.4502386088545 398.69564339290747L821.4502386088545 398.69564339290747Q820.6200160365931 396.05051566267906 821.4502386088545 393.27023542068713L821.4502386088545 393.27023542068713L832.4362070650586 391.74494278792764Q832.9768171121127 384.0991721224499 832.9768171121127 374.07857875027076L832.9768171121127 374.07857875027076ZM876.2256208764313 399.7961709886959L876.2256208764313 399.7961709886959Q877.4613009839833 400.35608853743037 878.3108310579253 402.1709936953973L878.3108310579253 402.1709936953973Q873.7156456579664 405.91664902141423 873.7156456579664 413.42726717512846L873.7156456579664 413.42726717512846Q873.7156456579664 420.08835525490076 879.8361236906846 424.12362310612514Q885.956601723403 428.1588909573495 895.6875825703746 428.1588909573495L895.6875825703746 428.1588909573495Q905.6888684408733 428.1588909573495 912.3692640223262 424.4711581363741Q919.0303521020985 420.78342531539874 919.0303521020985 414.1223372356265L919.0303521020985 414.1223372356265Q919.0303521020985 406.8820241054392 916.38522437187 403.4839038096713Q913.7594041433222 400.0857835139034 905.8240209526368 399.39071345340545L905.8240209526368 399.39071345340545L879.8361236906846 397.015890746704Q875.5305508159333 396.4559731979695 872.6730405672195 392.49793535346714Q869.8155303185056 388.53989750896477 869.8155303185056 384.79424218294787L869.8155303185056 384.79424218294787L879.1410536301867 369.3482408385484Q872.7502705739414 365.73773802429497 869.4679952882566 359.7717200050207Q866.2050275042521 353.78639448406585 866.2050275042521 347.53076393958406L866.2050275042521 347.53076393958406Q866.2050275042521 335.71457291111847 874.9706332671988 328.4935672826117Q883.716931528465 321.2532541524244 895.1276650216402 321.2532541524244L895.1276650216402 321.2532541524244Q906.1136334778444 321.2532541524244 914.4544742038202 327.10342716161574L914.4544742038202 327.10342716161574Q915.149544264318 308.04692300296284 928.6261804373066 307.35185294246486L928.6261804373066 307.35185294246486Q932.23668325156 308.18207551472636 932.23668325156 313.33717846341966L932.23668325156 313.33717846341966Q932.23668325156 316.1174587054116 931.6767657028256 319.457656496138L931.6767657028256 319.457656496138Q926.2706652322856 319.86311403142844 922.7953149297958 322.99092930366936Q919.3199646273059 326.1187445759103 917.775364492866 330.15401242713466L917.775364492866 330.15401242713466Q924.7260650978458 337.10471303211443 924.7260650978458 347.53076393958406L924.7260650978458 347.53076393958406Q924.7260650978458 358.5167323957882 915.8446143248161 365.81496803101703Q906.9438560501058 373.11320366624574 895.1276650216402 373.11320366624574L895.1276650216402 373.11320366624574Q888.8720344771584 373.11320366624574 883.8713915419091 371.4334510200423L883.8713915419091 371.4334510200423L879.1410536301867 383.8095595972424L913.7594041433222 387.2849098997323Q921.8106323440904 388.2695924854378 926.0582827138003 393.1930054139651Q930.2866255818296 398.13572584417295 930.2866255818296 406.0518015331777L930.2866255818296 406.0518015331777Q930.2866255818296 419.9532027431373 920.2853397113308 427.3865908901295Q910.2840538408323 434.8392865388023 893.1776073519097 434.8392865388023L893.1776073519097 434.8392865388023Q879.0059011184233 434.8392865388023 871.0705179277379 429.68418359010894Q863.1544422387333 424.54838814309613 863.1544422387333 415.9179348919129L863.1544422387333 415.9179348919129Q863.1544422387333 410.08706938440207 866.90009756475 405.56911399116524Q870.6650603924475 401.05115859792835 876.2256208764313 399.7961709886959ZM878.7162885932157 347.53076393958406L878.7162885932157 347.53076393958406Q878.7162885932157 355.6012996420328 883.2342439864526 361.29701263778014Q887.7521993796895 366.99272563352747 895.2628175334037 366.99272563352747L895.2628175334037 366.99272563352747Q902.6382831753544 366.99272563352747 907.3493135853963 361.3549351428216Q912.0796514971187 355.73645215379634 912.0796514971187 347.53076393958406L912.0796514971187 347.53076393958406Q912.0796514971187 338.63000566487386 907.4265435921184 332.72191015064107Q902.773435687118 326.81381463640827 895.2628175334037 326.81381463640827L895.2628175334037 326.81381463640827Q888.1769644166604 326.81381463640827 883.4466265049381 332.79914015736307Q878.7162885932157 338.7651581766374 878.7162885932157 347.53076393958406ZM961.9895433412096 324.03353439441634L961.9895433412096 324.03353439441634L961.7192383176825 338.3597006413469Q965.1945886201725 331.96891758510156 971.3729891579324 326.60143211792274Q977.551389695692 321.2532541524244 983.1119501796759 321.2532541524244L983.1119501796759 321.2532541524244Q987.4368305561077 321.2532541524244 990.7577208451536 322.2379367381299L990.7577208451536 322.2379367381299Q991.8775559426226 324.03353439441634 991.8775559426226 326.94896714817173L991.8775559426226 326.94896714817173Q991.8775559426226 331.54415254813057 989.9274982728922 336.13933794808946L989.9274982728922 336.13933794808946Q984.9268553376428 334.7491978270935 980.331669937684 334.7491978270935L980.331669937684 334.7491978270935Q968.9402439461894 334.7491978270935 961.5647783042386 345.8703187950611L961.5647783042386 345.8703187950611L961.2944732807116 370.19777091249034L961.2944732807116 391.1850252391932L976.7211671234306 393.27023542068713Q977.281084672165 395.49059811394454 976.7211671234306 398.83079590467094L976.7211671234306 398.83079590467094Q967.9748688621644 398.40603086769994 956.6992878807528 398.40603086769994L956.6992878807528 398.40603086769994Q948.2232946430134 398.40603086769994 936.5422561263115 398.69564339290747L936.5422561263115 398.69564339290747Q935.7120335540499 396.05051566267906 936.5422561263115 393.27023542068713L936.5422561263115 393.27023542068713L947.5282245825156 391.74494278792764Q948.0881421312499 384.0991721224499 948.0881421312499 374.07857875027076L948.0881421312499 374.07857875027076L948.0881421312499 335.98487793464545Q948.0881421312499 333.2045976926535 947.663377094279 330.8490824876326L947.663377094279 330.8490824876326L936.6967161397554 329.4589423666367Q936.1367985910208 327.3737321851427 936.6967161397554 324.1686869061798L936.6967161397554 324.1686869061798Q946.273236973283 323.4736168456819 960.5994032202136 321.2532541524244L960.5994032202136 321.2532541524244Q961.8543908294461 322.64339427342037 961.9895433412096 324.03353439441634ZM998.2683389988679 361.29701263778014L998.2683389988679 361.29701263778014Q998.2683389988679 352.9561719118044 1000.7010842106108 345.65793627657564Q1003.1338294223538 338.3597006413469 1007.7290148223126 332.93429266912653Q1012.3048927205909 327.50888469690625 1018.7729057835583 324.3810694246653Q1025.2409188465256 321.2532541524244 1033.3114545489743 321.2532541524244L1033.3114545489743 321.2532541524244Q1041.227530237979 321.2532541524244 1047.7534658059878 324.3810694246653Q1054.298708875677 327.50888469690625 1058.9518167806775 332.93429266912653Q1063.6049246856778 338.3597006413469 1066.1148999041427 345.65793627657564Q1068.605567620927 352.9561719118044 1068.605567620927 361.29701263778014L1068.605567620927 361.29701263778014Q1068.605567620927 369.90815838728287 1066.0376698974208 377.1484715174701Q1063.4697721739144 384.3694771459769 1058.8166642689139 389.71765511147527Q1054.1635563639136 395.06583307697355 1047.6183132942242 398.05849583745095Q1041.0923777262155 401.05115859792835 1033.3114545489743 401.05115859792835L1033.3114545489743 401.05115859792835Q1025.105766334762 401.05115859792835 1018.6377532717947 398.13572584417295Q1012.1697402088274 395.22029309041756 1007.6517848155906 389.93003762996074Q1003.1338294223538 384.6397821695039 1000.7010842106108 377.3415465342751Q998.2683389988679 370.0433108990464 998.2683389988679 361.29701263778014ZM1018.5605232650728 335.71457291111847L1018.5605232650728 335.71457291111847Q1012.5945052457985 344.19056614885767 1012.5945052457985 361.29701263778014L1012.5945052457985 361.29701263778014Q1012.5945052457985 369.77300587551935 1014.1970278852798 376.16378893176466Q1015.7802430230809 382.55457198800997 1018.5605232650728 386.8022223577198Q1021.3408035070647 391.04987272742966 1025.105766334762 393.1350829089236Q1028.851421660779 395.22029309041756 1033.3114545489743 395.22029309041756L1033.3114545489743 395.22029309041756Q1037.6170274237256 395.22029309041756 1041.497835261506 393.1350829089236Q1045.3979506009669 391.04987272742966 1048.1782308429588 386.8022223577198Q1050.9585110849507 382.55457198800997 1052.6189562294737 376.16378893176466Q1054.298708875677 369.77300587551935 1054.298708875677 361.29701263778014L1054.298708875677 361.29701263778014Q1054.298708875677 352.82101940004094 1052.6189562294737 346.3530063370736Q1050.9585110849507 339.8849932741063 1048.1010008362368 335.63734290439646Q1045.2627980892034 331.4090000363671 1041.4399127564645 329.24655984815115Q1037.6170274237256 327.10342716161574 1033.3114545489743 327.10342716161574L1033.3114545489743 327.10342716161574Q1024.6810012977912 327.10342716161574 1018.5605232650728 335.71457291111847ZM1105.44428082732 394.9306805652101L1105.44428082732 394.9306805652101Q1112.9548989810341 394.9306805652101 1116.5654017952875 391.45533026272017Q1120.1952121112215 387.9799799602303 1120.1952121112215 383.40410206195196L1120.1952121112215 383.40410206195196Q1120.1952121112215 380.75897433172355 1119.3456820372794 378.5386116384661Q1118.515459465018 376.2989414435282 1116.6426318020096 374.21373126203423Q1114.7698041390013 372.1285210805403 1111.6999113718018 370.12054090576834Q1108.6493261062828 368.11256073099645 1104.054140706324 365.73773802429497L1104.054140706324 365.73773802429497Q1098.3584277105765 362.8223052705396 1094.2652373543108 360.17717754031116Q1090.1527394963646 357.53204981008275 1087.5269192678165 354.61661705632736Q1084.8817915375882 351.7011843025719 1083.5495739216337 348.36098651184557Q1082.2366638073597 345.0207887211192 1082.2366638073597 340.8503683581313L1082.2366638073597 340.8503683581313Q1082.2366638073597 335.84972542288193 1084.0515689653266 332.16199260190655Q1085.8471666216133 328.4935672826117 1089.1101344056176 326.06082207086877Q1092.3924096913024 323.6280768591259 1096.8331350778171 322.4310117549349Q1101.273860464332 321.2532541524244 1106.6992684365523 321.2532541524244L1106.6992684365523 321.2532541524244Q1117.5500843809932 321.2532541524244 1127.840982776699 326.5435096128812L1127.840982776699 326.5435096128812L1127.840982776699 344.3257186606212L1121.29573970701 344.3257186606212L1118.2451544414912 329.32378985487316Q1112.1246764087728 326.40835710111776 1105.3091283155563 326.40835710111776L1105.3091283155563 326.40835710111776Q1093.9177023240618 326.40835710111776 1093.9177023240618 335.71457291111847L1093.9177023240618 335.71457291111847Q1093.9177023240618 340.7152158463678 1097.663357650079 344.88563620935565Q1101.4283204777762 349.05605657234355 1109.769161203752 353.2264769353314L1109.769161203752 353.2264769353314Q1115.4648741994993 356.1419096890868 1119.7704470742506 358.78703741931525Q1124.0760199490019 361.43216514954366 1126.9335301977158 364.34759790329906Q1129.7717329447491 367.26303065705446 1131.239103072467 370.68045845450285Q1132.706473200185 374.07857875027076 1132.706473200185 378.38415162502207L1132.706473200185 378.38415162502207Q1132.706473200185 383.24964204850795 1130.621263018691 387.4200624114958Q1128.536052837197 391.5904827744837 1124.7710900094999 394.5831455349611Q1121.025434683483 397.5758082954385 1115.735179223026 399.3134834466834Q1110.46423126425 401.05115859792835 1104.054140706324 401.05115859792835L1104.054140706324 401.05115859792835Q1091.6973396308044 401.05115859792835 1080.8465236863638 395.76090313747153L1080.8465236863638 395.76090313747153L1080.8465236863638 377.9786940897316L1087.3724592543726 377.9786940897316L1090.4423520215719 391.74494278792764Q1097.5282051383151 394.9306805652101 1105.44428082732 394.9306805652101ZM1169.390726393134 394.9306805652101L1169.390726393134 394.9306805652101Q1176.9013445468481 394.9306805652101 1180.5118473611014 391.45533026272017Q1184.1416576770355 387.9799799602303 1184.1416576770355 383.40410206195196L1184.1416576770355 383.40410206195196Q1184.1416576770355 380.75897433172355 1183.2921276030934 378.5386116384661Q1182.461905030832 376.2989414435282 1180.5890773678236 374.21373126203423Q1178.716249704815 372.1285210805403 1175.6463569376156 370.12054090576834Q1172.5957716720968 368.11256073099645 1168.0005862721378 365.73773802429497L1168.0005862721378 365.73773802429497Q1162.3048732763905 362.8223052705396 1158.2116829201248 360.17717754031116Q1154.0991850621785 357.53204981008275 1151.4733648336305 354.61661705632736Q1148.828237103402 351.7011843025719 1147.4960194874475 348.36098651184557Q1146.1831093731737 345.0207887211192 1146.1831093731737 340.8503683581313L1146.1831093731737 340.8503683581313Q1146.1831093731737 335.84972542288193 1147.9980145311406 332.16199260190655Q1149.7936121874272 328.4935672826117 1153.0565799714313 326.06082207086877Q1156.3388552571164 323.6280768591259 1160.779580643631 322.4310117549349Q1165.220306030146 321.2532541524244 1170.6457140023663 321.2532541524244L1170.6457140023663 321.2532541524244Q1181.496529946807 321.2532541524244 1191.787428342513 326.5435096128812L1191.787428342513 326.5435096128812L1191.787428342513 344.3257186606212L1185.242185272824 344.3257186606212L1182.1916000073052 329.32378985487316Q1176.0711219745867 326.40835710111776 1169.2555738813703 326.40835710111776L1169.2555738813703 326.40835710111776Q1157.8641478898758 326.40835710111776 1157.8641478898758 335.71457291111847L1157.8641478898758 335.71457291111847Q1157.8641478898758 340.7152158463678 1161.6098032158925 344.88563620935565Q1165.3747660435902 349.05605657234355 1173.715606769566 353.2264769353314L1173.715606769566 353.2264769353314Q1179.4113197653132 356.1419096890868 1183.7168926400645 358.78703741931525Q1188.0224655148158 361.43216514954366 1190.8799757635297 364.34759790329906Q1193.7181785105631 367.26303065705446 1195.1855486382813 370.68045845450285Q1196.6529187659992 374.07857875027076 1196.6529187659992 378.38415162502207L1196.6529187659992 378.38415162502207Q1196.6529187659992 383.24964204850795 1194.567708584505 387.4200624114958Q1192.482498403011 391.5904827744837 1188.7175355753138 394.5831455349611Q1184.9718802492969 397.5758082954385 1179.68162478884 399.3134834466834Q1174.4106768300637 401.05115859792835 1168.0005862721378 401.05115859792835L1168.0005862721378 401.05115859792835Q1155.6437851966184 401.05115859792835 1144.7929692521775 395.76090313747153L1144.7929692521775 395.76090313747153L1144.7929692521775 377.9786940897316L1151.3189048201866 377.9786940897316L1154.3887975873859 391.74494278792764Q1161.474650704129 394.9306805652101 1169.390726393134 394.9306805652101Z " fill="#ec8b5e" transform="matrix(0.7312061628873598,0,0,0.7312061628873598,0,36.88327862961708)"/></g></svg>